<?xml version="1.0" encoding="UTF-8" standalone="no"?>
<!-- Created with Inkscape (http://www.inkscape.org/) -->

<svg
   xmlns:dc="http://purl.org/dc/elements/1.1/"
   xmlns:cc="http://creativecommons.org/ns#"
   xmlns:rdf="http://www.w3.org/1999/02/22-rdf-syntax-ns#"
   xmlns:svg="http://www.w3.org/2000/svg"
   xmlns="http://www.w3.org/2000/svg"
   xmlns:xlink="http://www.w3.org/1999/xlink"
   xmlns:sodipodi="http://sodipodi.sourceforge.net/DTD/sodipodi-0.dtd"
   xmlns:inkscape="http://www.inkscape.org/namespaces/inkscape"
   width="744.09448819"
   height="1052.3622047"
   id="svg2"
   version="1.1"
   inkscape:version="0.48.1 r9760"
   sodipodi:docname="logo_kuwaibav5.svg">
  <defs
     id="defs4">
    <linearGradient
       inkscape:collect="always"
       id="linearGradient3775">
      <stop
         style="stop-color:#ffffff;stop-opacity:1;"
         offset="0"
         id="stop3777" />
      <stop
         style="stop-color:#ffffff;stop-opacity:0;"
         offset="1"
         id="stop3779" />
    </linearGradient>
    <linearGradient
       inkscape:collect="always"
       xlink:href="#linearGradient3775"
       id="linearGradient3781"
       x1="532.98376"
       y1="196.24191"
       x2="402.85715"
       y2="423.96353"
       gradientUnits="userSpaceOnUse" />
    <linearGradient
       inkscape:collect="always"
       xlink:href="#linearGradient3775-0"
       id="linearGradient3781-1"
       x1="532.98376"
       y1="196.24191"
       x2="402.85715"
       y2="423.96353"
       gradientUnits="userSpaceOnUse" />
    <linearGradient
       inkscape:collect="always"
       id="linearGradient3775-0">
      <stop
         style="stop-color:#ffffff;stop-opacity:1;"
         offset="0"
         id="stop3777-6" />
      <stop
         style="stop-color:#ffffff;stop-opacity:0;"
         offset="1"
         id="stop3779-3" />
    </linearGradient>
    <linearGradient
       inkscape:collect="always"
       xlink:href="#linearGradient3775-0-6"
       id="linearGradient3781-1-2"
       x1="532.98376"
       y1="196.24191"
       x2="402.85715"
       y2="423.96353"
       gradientUnits="userSpaceOnUse" />
    <linearGradient
       inkscape:collect="always"
       id="linearGradient3775-0-6">
      <stop
         style="stop-color:#ffffff;stop-opacity:1;"
         offset="0"
         id="stop3777-6-6" />
      <stop
         style="stop-color:#ffffff;stop-opacity:0;"
         offset="1"
         id="stop3779-3-4" />
    </linearGradient>
    <linearGradient
       inkscape:collect="always"
       xlink:href="#linearGradient3775-0-6-3"
       id="linearGradient3781-1-2-0"
       x1="532.98376"
       y1="196.24191"
       x2="402.85715"
       y2="423.96353"
       gradientUnits="userSpaceOnUse" />
    <linearGradient
       inkscape:collect="always"
       id="linearGradient3775-0-6-3">
      <stop
         style="stop-color:#ffffff;stop-opacity:1;"
         offset="0"
         id="stop3777-6-6-6" />
      <stop
         style="stop-color:#ffffff;stop-opacity:0;"
         offset="1"
         id="stop3779-3-4-1" />
    </linearGradient>
    <linearGradient
       inkscape:collect="always"
       xlink:href="#linearGradient3775-0-6-3-8"
       id="linearGradient3781-1-2-0-0"
       x1="532.98376"
       y1="196.24191"
       x2="402.85715"
       y2="423.96353"
       gradientUnits="userSpaceOnUse" />
    <linearGradient
       inkscape:collect="always"
       id="linearGradient3775-0-6-3-8">
      <stop
         style="stop-color:#ffffff;stop-opacity:1;"
         offset="0"
         id="stop3777-6-6-6-8" />
      <stop
         style="stop-color:#ffffff;stop-opacity:0;"
         offset="1"
         id="stop3779-3-4-1-5" />
    </linearGradient>
  </defs>
  <sodipodi:namedview
     id="base"
     pagecolor="#ffffff"
     bordercolor="#666666"
     borderopacity="1.0"
     inkscape:pageopacity="0.0"
     inkscape:pageshadow="2"
     inkscape:zoom="0.7"
     inkscape:cx="335.90402"
     inkscape:cy="287.36469"
     inkscape:document-units="px"
     inkscape:current-layer="layer1"
     showgrid="true"
     inkscape:window-width="1278"
     inkscape:window-height="748"
     inkscape:window-x="0"
     inkscape:window-y="0"
     inkscape:window-maximized="1" />
  <metadata
     id="metadata7">
    <rdf:RDF>
      <cc:Work
         rdf:about="">
        <dc:format>image/svg+xml</dc:format>
        <dc:type
           rdf:resource="http://purl.org/dc/dcmitype/StillImage" />
        <dc:title></dc:title>
      </cc:Work>
    </rdf:RDF>
  </metadata>
  <g
     inkscape:label="Layer 1"
     inkscape:groupmode="layer"
     id="layer1">
    <path
       sodipodi:type="arc"
       style="fill:#ff6600;fill-opacity:1;stroke:#ff6600;stroke-opacity:1"
       id="path3755"
       sodipodi:cx="402.85715"
       sodipodi:cy="409.50504"
       sodipodi:rx="108.57143"
       sodipodi:ry="108.57143"
       d="m 511.42857,409.50504 a 108.57143,108.57143 0 1 1 -217.14285,0 108.57143,108.57143 0 1 1 217.14285,0 z"
       transform="translate(-262.85714,-17.142857)" />
    <path
       transform="matrix(0.79043876,0,0,0.79043876,-169.86248,51.530671)"
       sodipodi:type="arc"
       style="fill:url(#linearGradient3781);fill-opacity:1;stroke:none"
       id="path3755-4"
       sodipodi:cx="402.85715"
       sodipodi:cy="409.50504"
       sodipodi:rx="108.57143"
       sodipodi:ry="108.57143"
       d="m 511.42857,409.50504 a 108.57143,108.57143 0 1 1 -217.14285,0 108.57143,108.57143 0 1 1 217.14285,0 z" />
    <path
       sodipodi:type="arc"
       style="fill:#ffffff;fill-opacity:1;stroke:none"
       id="path3783"
       sodipodi:cx="132.85715"
       sodipodi:cy="718.07648"
       sodipodi:rx="21.428572"
       sodipodi:ry="20"
       d="m 154.28572,718.07648 a 21.428572,20 0 1 1 -42.85714,0 21.428572,20 0 1 1 42.85714,0 z"
       transform="translate(-40.000003,-374.28572)" />
    <path
       transform="translate(-6.4285829,-255.7143)"
       sodipodi:type="arc"
       style="fill:#ffffff;fill-opacity:1;stroke:none"
       id="path3783-7"
       sodipodi:cx="132.85715"
       sodipodi:cy="718.07648"
       sodipodi:rx="21.428572"
       sodipodi:ry="20"
       d="m 154.28572,718.07648 a 21.428572,20 0 1 1 -42.85714,0 21.428572,20 0 1 1 42.85714,0 z" />
    <path
       transform="translate(-55.571433,-305.57144)"
       sodipodi:type="arc"
       style="fill:#ffffff;fill-opacity:1;stroke:none"
       id="path3783-8"
       sodipodi:cx="132.85715"
       sodipodi:cy="718.07648"
       sodipodi:rx="21.428572"
       sodipodi:ry="20"
       d="m 154.28572,718.07648 a 21.428572,20 0 1 1 -42.85714,0 21.428572,20 0 1 1 42.85714,0 z" />
    <path
       transform="translate(57.857147,-275.7143)"
       sodipodi:type="arc"
       style="fill:#ffffff;fill-opacity:1;stroke:none"
       id="path3783-7-4"
       sodipodi:cx="132.85715"
       sodipodi:cy="718.07648"
       sodipodi:rx="21.428572"
       sodipodi:ry="20"
       d="m 154.28572,718.07648 a 21.428572,20 0 1 1 -42.85714,0 21.428572,20 0 1 1 42.85714,0 z" />
    <path
       transform="translate(67.857147,-342.85716)"
       sodipodi:type="arc"
       style="fill:#ffffff;fill-opacity:1;stroke:none"
       id="path3783-7-5"
       sodipodi:cx="132.85715"
       sodipodi:cy="718.07648"
       sodipodi:rx="21.428572"
       sodipodi:ry="20"
       d="m 154.28572,718.07648 a 21.428572,20 0 1 1 -42.85714,0 21.428572,20 0 1 1 42.85714,0 z" />
    <path
       transform="translate(26.428567,-390.00001)"
       sodipodi:type="arc"
       style="fill:#ffffff;fill-opacity:1;stroke:none"
       id="path3783-7-0"
       sodipodi:cx="132.85715"
       sodipodi:cy="718.07648"
       sodipodi:rx="21.428572"
       sodipodi:ry="20"
       d="m 154.28572,718.07648 a 21.428572,20 0 1 1 -42.85714,0 21.428572,20 0 1 1 42.85714,0 z" />
    <path
       style="fill:none;stroke:#ffffff;stroke-width:13.10000038;stroke-linecap:butt;stroke-linejoin:miter;stroke-miterlimit:4;stroke-opacity:0.94117647;stroke-dasharray:none"
       d="m 76.428567,413.07646 15,-70.71428 L 160,326.64789 l 42.14286,47.85715 -11.42857,69.28571 -63.57143,19.28571 z"
       id="path3844"
       inkscape:connector-curvature="0" />
    <path
       transform="matrix(1.1735844,0,0,1.1735019,-322.42609,225.21539)"
       sodipodi:type="arc"
       style="fill:#55d400;fill-opacity:1;stroke:#55d400;stroke-opacity:1"
       id="path3755-2"
       sodipodi:cx="402.85715"
       sodipodi:cy="409.50504"
       sodipodi:rx="108.57143"
       sodipodi:ry="108.57143"
       d="m 511.42857,409.50504 a 108.57143,108.57143 0 1 1 -217.14285,0 108.57143,108.57143 0 1 1 217.14285,0 z"
       inkscape:export-filename="/home/zim/docs/work/freelancing/Telcolabs/img/logos/kuwaiba_icon.png"
       inkscape:export-xdpi="90"
       inkscape:export-ydpi="90" />
    <path
       transform="matrix(0.92764665,0,0,0.92758146,-213.289,305.80392)"
       sodipodi:type="arc"
       style="fill:url(#linearGradient3781-1);fill-opacity:1;stroke:none"
       id="path3755-4-0"
       sodipodi:cx="402.85715"
       sodipodi:cy="409.50504"
       sodipodi:rx="108.57143"
       sodipodi:ry="108.57143"
       d="m 511.42857,409.50504 a 108.57143,108.57143 0 1 1 -217.14285,0 108.57143,108.57143 0 1 1 217.14285,0 z"
       inkscape:export-filename="/home/zim/docs/work/freelancing/Telcolabs/img/logos/kuwaiba_icon.png"
       inkscape:export-xdpi="90"
       inkscape:export-ydpi="90" />
    <path
       sodipodi:type="arc"
       style="fill:#ffffff;fill-opacity:1;stroke:none"
       id="path3783-6"
       sodipodi:cx="132.85715"
       sodipodi:cy="718.07648"
       sodipodi:rx="21.428572"
       sodipodi:ry="20"
       d="m 154.28572,718.07648 a 21.428572,20 0 1 1 -42.85714,0 21.428572,20 0 1 1 42.85714,0 z"
       transform="matrix(1.1735844,0,0,1.1735019,-60.88443,-193.89245)"
       inkscape:export-filename="/home/zim/docs/work/freelancing/Telcolabs/img/logos/kuwaiba_icon.png"
       inkscape:export-xdpi="90"
       inkscape:export-ydpi="90" />
    <path
       transform="matrix(1.1735844,0,0,1.1735019,-21.48552,-54.748654)"
       sodipodi:type="arc"
       style="fill:#ffffff;fill-opacity:1;stroke:none"
       id="path3783-7-1"
       sodipodi:cx="132.85715"
       sodipodi:cy="718.07648"
       sodipodi:rx="21.428572"
       sodipodi:ry="20"
       d="m 154.28572,718.07648 a 21.428572,20 0 1 1 -42.85714,0 21.428572,20 0 1 1 42.85714,0 z"
       inkscape:export-filename="/home/zim/docs/work/freelancing/Telcolabs/img/logos/kuwaiba_icon.png"
       inkscape:export-xdpi="90"
       inkscape:export-ydpi="90" />
    <path
       transform="matrix(1.1735844,0,0,1.1735019,-79.15881,-113.25611)"
       sodipodi:type="arc"
       style="fill:#ffffff;fill-opacity:1;stroke:none"
       id="path3783-8-5"
       sodipodi:cx="132.85715"
       sodipodi:cy="718.07648"
       sodipodi:rx="21.428572"
       sodipodi:ry="20"
       d="m 154.28572,718.07648 a 21.428572,20 0 1 1 -42.85714,0 21.428572,20 0 1 1 42.85714,0 z"
       inkscape:export-filename="/home/zim/docs/work/freelancing/Telcolabs/img/logos/kuwaiba_icon.png"
       inkscape:export-xdpi="90"
       inkscape:export-ydpi="90" />
    <path
       transform="matrix(1.1735844,0,0,1.1735019,53.95922,-78.218704)"
       sodipodi:type="arc"
       style="fill:#ffffff;fill-opacity:1;stroke:none"
       id="path3783-7-4-5"
       sodipodi:cx="132.85715"
       sodipodi:cy="718.07648"
       sodipodi:rx="21.428572"
       sodipodi:ry="20"
       d="m 154.28572,718.07648 a 21.428572,20 0 1 1 -42.85714,0 21.428572,20 0 1 1 42.85714,0 z"
       inkscape:export-filename="/home/zim/docs/work/freelancing/Telcolabs/img/logos/kuwaiba_icon.png"
       inkscape:export-xdpi="90"
       inkscape:export-ydpi="90" />
    <path
       transform="matrix(1.1735844,0,0,1.1735019,65.69506,-157.01098)"
       sodipodi:type="arc"
       style="fill:#ffffff;fill-opacity:1;stroke:none"
       id="path3783-7-5-4"
       sodipodi:cx="132.85715"
       sodipodi:cy="718.07648"
       sodipodi:rx="21.428572"
       sodipodi:ry="20"
       d="m 154.28572,718.07648 a 21.428572,20 0 1 1 -42.85714,0 21.428572,20 0 1 1 42.85714,0 z"
       inkscape:export-filename="/home/zim/docs/work/freelancing/Telcolabs/img/logos/kuwaiba_icon.png"
       inkscape:export-xdpi="90"
       inkscape:export-ydpi="90" />
    <path
       transform="matrix(1.1735844,0,0,1.1735019,17.07513,-212.33321)"
       sodipodi:type="arc"
       style="fill:#ffffff;fill-opacity:1;stroke:none"
       id="path3783-7-0-7"
       sodipodi:cx="132.85715"
       sodipodi:cy="718.07648"
       sodipodi:rx="21.428572"
       sodipodi:ry="20"
       d="m 154.28572,718.07648 a 21.428572,20 0 1 1 -42.85714,0 21.428572,20 0 1 1 42.85714,0 z"
       inkscape:export-filename="/home/zim/docs/work/freelancing/Telcolabs/img/logos/kuwaiba_icon.png"
       inkscape:export-xdpi="90"
       inkscape:export-ydpi="90" />
    <path
       style="fill:none;stroke:#ffffff;stroke-width:15.3734169;stroke-linecap:butt;stroke-linejoin:miter;stroke-miterlimit:4;stroke-opacity:0.94117647;stroke-dasharray:none"
       d="m 75.75434,730.07863 17.60377,-82.98334 80.47437,-18.44074 49.45821,56.16046 -13.41239,81.30689 -74.60646,22.63183 z"
       id="path3844-6"
       inkscape:connector-curvature="0"
       inkscape:export-xdpi="90"
       inkscape:export-ydpi="90"
       inkscape:export-filename="/home/zim/docs/work/freelancing/Telcolabs/img/logos/kuwaiba_icon.png" />
    <text
       xml:space="preserve"
       style="font-size:40px;font-style:normal;font-weight:normal;line-height:125%;letter-spacing:0px;word-spacing:0px;fill:#000000;fill-opacity:1;stroke:none;font-family:Bitstream Vera Sans"
       x="318.57144"
       y="653.79077"
       id="text3174"
       sodipodi:linespacing="125%"><tspan
         sodipodi:role="line"
         x="318.57144"
         y="653.79077"
         style="font-size:32px;font-weight:bold;fill:#ff7f2a"
         id="tspan3186">Kuwaiba</tspan><tspan
         sodipodi:role="line"
         x="318.57144"
         y="653.79077"
         style="font-size:32px"
         id="tspan3190">Network Inventory <tspan
   style="fill:#ffcc00"
   id="tspan3196">for the masses</tspan></tspan></text>
    <path
       transform="matrix(0.58695239,0,0,0.58182883,-81.33007,-99.395748)"
       sodipodi:type="arc"
       style="fill:#55d400;fill-opacity:1;stroke:#55d400;stroke-opacity:1"
       id="path3755-2-9"
       sodipodi:cx="402.85715"
       sodipodi:cy="409.50504"
       sodipodi:rx="108.57143"
       sodipodi:ry="108.57143"
       d="m 511.42857,409.50504 a 108.57143,108.57143 0 1 1 -217.14285,0 108.57143,108.57143 0 1 1 217.14285,0 z"
       inkscape:export-filename="/home/zim/docs/work/freelancing/Telcolabs/img/logos/logo.png"
       inkscape:export-xdpi="90"
       inkscape:export-ydpi="90" />
    <path
       transform="matrix(0.46394994,0,0,0.4599001,-26.74663,-59.439505)"
       sodipodi:type="arc"
       style="fill:url(#linearGradient3781-1-2);fill-opacity:1;stroke:none"
       id="path3755-4-0-5"
       sodipodi:cx="402.85715"
       sodipodi:cy="409.50504"
       sodipodi:rx="108.57143"
       sodipodi:ry="108.57143"
       d="m 511.42857,409.50504 a 108.57143,108.57143 0 1 1 -217.14285,0 108.57143,108.57143 0 1 1 217.14285,0 z"
       inkscape:export-filename="/home/zim/docs/work/freelancing/Telcolabs/img/logos/logo.png"
       inkscape:export-xdpi="90"
       inkscape:export-ydpi="90" />
    <path
       sodipodi:type="arc"
       style="fill:#ffffff;fill-opacity:1;stroke:none"
       id="path3783-6-0"
       sodipodi:cx="132.85715"
       sodipodi:cy="718.07648"
       sodipodi:rx="21.428572"
       sodipodi:ry="20"
       d="m 154.28572,718.07648 a 21.428572,20 0 1 1 -42.85714,0 21.428572,20 0 1 1 42.85714,0 z"
       transform="matrix(0.58695239,0,0,0.58182883,49.476461,-307.19177)"
       inkscape:export-filename="/home/zim/docs/work/freelancing/Telcolabs/img/logos/logo.png"
       inkscape:export-xdpi="90"
       inkscape:export-ydpi="90" />
    <path
       transform="matrix(0.58695239,0,0,0.58182883,69.181294,-238.20349)"
       sodipodi:type="arc"
       style="fill:#ffffff;fill-opacity:1;stroke:none"
       id="path3783-7-1-4"
       sodipodi:cx="132.85715"
       sodipodi:cy="718.07648"
       sodipodi:rx="21.428572"
       sodipodi:ry="20"
       d="m 154.28572,718.07648 a 21.428572,20 0 1 1 -42.85714,0 21.428572,20 0 1 1 42.85714,0 z"
       inkscape:export-filename="/home/zim/docs/work/freelancing/Telcolabs/img/logos/logo.png"
       inkscape:export-xdpi="90"
       inkscape:export-ydpi="90" />
    <path
       transform="matrix(0.58695239,0,0,0.58182883,40.336776,-267.21182)"
       sodipodi:type="arc"
       style="fill:#ffffff;fill-opacity:1;stroke:none"
       id="path3783-8-5-8"
       sodipodi:cx="132.85715"
       sodipodi:cy="718.07648"
       sodipodi:rx="21.428572"
       sodipodi:ry="20"
       d="m 154.28572,718.07648 a 21.428572,20 0 1 1 -42.85714,0 21.428572,20 0 1 1 42.85714,0 z"
       inkscape:export-filename="/home/zim/docs/work/freelancing/Telcolabs/img/logos/logo.png"
       inkscape:export-xdpi="90"
       inkscape:export-ydpi="90" />
    <path
       transform="matrix(0.58695239,0,0,0.58182883,106.91396,-249.84008)"
       sodipodi:type="arc"
       style="fill:#ffffff;fill-opacity:1;stroke:none"
       id="path3783-7-4-5-7"
       sodipodi:cx="132.85715"
       sodipodi:cy="718.07648"
       sodipodi:rx="21.428572"
       sodipodi:ry="20"
       d="m 154.28572,718.07648 a 21.428572,20 0 1 1 -42.85714,0 21.428572,20 0 1 1 42.85714,0 z"
       inkscape:export-filename="/home/zim/docs/work/freelancing/Telcolabs/img/logos/logo.png"
       inkscape:export-xdpi="90"
       inkscape:export-ydpi="90" />
    <path
       transform="matrix(0.58695239,0,0,0.58182883,112.78348,-288.90573)"
       sodipodi:type="arc"
       style="fill:#ffffff;fill-opacity:1;stroke:none"
       id="path3783-7-5-4-1"
       sodipodi:cx="132.85715"
       sodipodi:cy="718.07648"
       sodipodi:rx="21.428572"
       sodipodi:ry="20"
       d="m 154.28572,718.07648 a 21.428572,20 0 1 1 -42.85714,0 21.428572,20 0 1 1 42.85714,0 z"
       inkscape:export-filename="/home/zim/docs/work/freelancing/Telcolabs/img/logos/logo.png"
       inkscape:export-xdpi="90"
       inkscape:export-ydpi="90" />
    <path
       transform="matrix(0.58695239,0,0,0.58182883,88.466882,-316.3348)"
       sodipodi:type="arc"
       style="fill:#ffffff;fill-opacity:1;stroke:none"
       id="path3783-7-0-7-7"
       sodipodi:cx="132.85715"
       sodipodi:cy="718.07648"
       sodipodi:rx="21.428572"
       sodipodi:ry="20"
       d="m 154.28572,718.07648 a 21.428572,20 0 1 1 -42.85714,0 21.428572,20 0 1 1 42.85714,0 z"
       inkscape:export-filename="/home/zim/docs/work/freelancing/Telcolabs/img/logos/logo.png"
       inkscape:export-xdpi="90"
       inkscape:export-ydpi="90" />
    <path
       style="fill:none;stroke:#ffffff;stroke-width:7.65544462;stroke-linecap:butt;stroke-linejoin:miter;stroke-miterlimit:4;stroke-opacity:0.94117647;stroke-dasharray:none"
       d="m 117.8145,150.91828 8.80429,-41.1436 40.24816,-9.14303 24.73586,27.84467 -6.70802,40.31242 -37.31342,11.22099 z"
       id="path3844-6-2"
       inkscape:connector-curvature="0"
       inkscape:export-xdpi="90"
       inkscape:export-ydpi="90"
       inkscape:export-filename="/home/zim/docs/work/freelancing/Telcolabs/img/logos/logo.png" />
    <text
       xml:space="preserve"
       style="font-size:40px;font-style:normal;font-weight:normal;line-height:125%;letter-spacing:0px;word-spacing:0px;fill:#000000;fill-opacity:1;stroke:none;font-family:Bitstream Vera Sans"
       x="237.34305"
       y="130.3826"
       id="text3174-7"
       sodipodi:linespacing="125%"
       inkscape:export-filename="/home/zim/docs/work/freelancing/Telcolabs/img/logos/logo.png"
       inkscape:export-xdpi="90"
       inkscape:export-ydpi="90"><tspan
         sodipodi:role="line"
         x="237.34305"
         y="130.3826"
         style="font-size:32px;font-weight:bold;fill:#55d400;fill-opacity:1"
         id="tspan3186-2">Kuwaiba</tspan><tspan
         sodipodi:role="line"
         x="237.34305"
         y="162.4086"
         style="font-size:24px"
         id="tspan3190-2">Network Inventory <tspan
   style="font-size:24px;fill:#ff6600"
   id="tspan3196-6">for the masses</tspan></tspan></text>
    <path
       transform="matrix(0.58695239,0,0,0.58182883,286.39918,64.100348)"
       sodipodi:type="arc"
       style="fill:#55d400;fill-opacity:1;stroke:#55d400;stroke-opacity:1"
       id="path3755-2-9-0"
       sodipodi:cx="402.85715"
       sodipodi:cy="409.50504"
       sodipodi:rx="108.57143"
       sodipodi:ry="108.57143"
       d="m 511.42857,409.50504 a 108.57143,108.57143 0 1 1 -217.14285,0 108.57143,108.57143 0 1 1 217.14285,0 z"
       inkscape:export-filename="/home/zim/logo_texto.png"
       inkscape:export-xdpi="90"
       inkscape:export-ydpi="90" />
    <path
       transform="matrix(0.46394994,0,0,0.4599001,340.98262,104.0566)"
       sodipodi:type="arc"
       style="fill:url(#linearGradient3781-1-2-0);fill-opacity:1;stroke:none"
       id="path3755-4-0-5-6"
       sodipodi:cx="402.85715"
       sodipodi:cy="409.50504"
       sodipodi:rx="108.57143"
       sodipodi:ry="108.57143"
       d="m 511.42857,409.50504 a 108.57143,108.57143 0 1 1 -217.14285,0 108.57143,108.57143 0 1 1 217.14285,0 z"
       inkscape:export-filename="/home/zim/logo_texto.png"
       inkscape:export-xdpi="90"
       inkscape:export-ydpi="90" />
    <path
       sodipodi:type="arc"
       style="fill:#ffffff;fill-opacity:1;stroke:none"
       id="path3783-6-0-3"
       sodipodi:cx="132.85715"
       sodipodi:cy="718.07648"
       sodipodi:rx="21.428572"
       sodipodi:ry="20"
       d="m 154.28572,718.07648 a 21.428572,20 0 1 1 -42.85714,0 21.428572,20 0 1 1 42.85714,0 z"
       transform="matrix(0.58695239,0,0,0.58182883,417.20571,-143.69567)"
       inkscape:export-filename="/home/zim/logo_texto.png"
       inkscape:export-xdpi="90"
       inkscape:export-ydpi="90" />
    <path
       transform="matrix(0.58695239,0,0,0.58182883,436.91054,-74.707393)"
       sodipodi:type="arc"
       style="fill:#ffffff;fill-opacity:1;stroke:none"
       id="path3783-7-1-4-2"
       sodipodi:cx="132.85715"
       sodipodi:cy="718.07648"
       sodipodi:rx="21.428572"
       sodipodi:ry="20"
       d="m 154.28572,718.07648 a 21.428572,20 0 1 1 -42.85714,0 21.428572,20 0 1 1 42.85714,0 z"
       inkscape:export-filename="/home/zim/logo_texto.png"
       inkscape:export-xdpi="90"
       inkscape:export-ydpi="90" />
    <path
       transform="matrix(0.58695239,0,0,0.58182883,408.06602,-103.71572)"
       sodipodi:type="arc"
       style="fill:#ffffff;fill-opacity:1;stroke:none"
       id="path3783-8-5-8-0"
       sodipodi:cx="132.85715"
       sodipodi:cy="718.07648"
       sodipodi:rx="21.428572"
       sodipodi:ry="20"
       d="m 154.28572,718.07648 a 21.428572,20 0 1 1 -42.85714,0 21.428572,20 0 1 1 42.85714,0 z"
       inkscape:export-filename="/home/zim/logo_texto.png"
       inkscape:export-xdpi="90"
       inkscape:export-ydpi="90" />
    <path
       transform="matrix(0.58695239,0,0,0.58182883,474.64321,-86.343983)"
       sodipodi:type="arc"
       style="fill:#ffffff;fill-opacity:1;stroke:none"
       id="path3783-7-4-5-7-6"
       sodipodi:cx="132.85715"
       sodipodi:cy="718.07648"
       sodipodi:rx="21.428572"
       sodipodi:ry="20"
       d="m 154.28572,718.07648 a 21.428572,20 0 1 1 -42.85714,0 21.428572,20 0 1 1 42.85714,0 z"
       inkscape:export-filename="/home/zim/logo_texto.png"
       inkscape:export-xdpi="90"
       inkscape:export-ydpi="90" />
    <path
       transform="matrix(0.58695239,0,0,0.58182883,480.51273,-125.40963)"
       sodipodi:type="arc"
       style="fill:#ffffff;fill-opacity:1;stroke:none"
       id="path3783-7-5-4-1-1"
       sodipodi:cx="132.85715"
       sodipodi:cy="718.07648"
       sodipodi:rx="21.428572"
       sodipodi:ry="20"
       d="m 154.28572,718.07648 a 21.428572,20 0 1 1 -42.85714,0 21.428572,20 0 1 1 42.85714,0 z"
       inkscape:export-filename="/home/zim/logo_texto.png"
       inkscape:export-xdpi="90"
       inkscape:export-ydpi="90" />
    <path
       transform="matrix(0.58695239,0,0,0.58182883,456.19613,-152.8387)"
       sodipodi:type="arc"
       style="fill:#ffffff;fill-opacity:1;stroke:none"
       id="path3783-7-0-7-7-5"
       sodipodi:cx="132.85715"
       sodipodi:cy="718.07648"
       sodipodi:rx="21.428572"
       sodipodi:ry="20"
       d="m 154.28572,718.07648 a 21.428572,20 0 1 1 -42.85714,0 21.428572,20 0 1 1 42.85714,0 z"
       inkscape:export-filename="/home/zim/logo_texto.png"
       inkscape:export-xdpi="90"
       inkscape:export-ydpi="90" />
    <path
       style="fill:none;stroke:#ffffff;stroke-width:7.65544462;stroke-linecap:butt;stroke-linejoin:miter;stroke-miterlimit:4;stroke-opacity:0.94117647;stroke-dasharray:none"
       d="m 485.54375,314.41438 8.80429,-41.1436 40.24816,-9.14303 24.73586,27.84467 -6.70802,40.31242 -37.31342,11.22099 z"
       id="path3844-6-2-5"
       inkscape:connector-curvature="0"
       inkscape:export-xdpi="90"
       inkscape:export-ydpi="90"
       inkscape:export-filename="/home/zim/logo_texto.png" />
    <text
       xml:space="preserve"
       style="font-size:40px;font-style:normal;font-weight:normal;line-height:125%;letter-spacing:0px;word-spacing:0px;fill:#000000;fill-opacity:1;stroke:none;font-family:Bitstream Vera Sans"
       x="445.22656"
       y="393.15216"
       id="text3174-7-4"
       sodipodi:linespacing="125%"
       inkscape:export-filename="/home/zim/logo_texto.png"
       inkscape:export-xdpi="90"
       inkscape:export-ydpi="90"><tspan
         sodipodi:role="line"
         x="445.22656"
         y="393.15216"
         style="font-size:32px;font-weight:bold;fill:#55d400;fill-opacity:1"
         id="tspan3190-2-6">Kuwaiba</tspan></text>
    <text
       xml:space="preserve"
       style="font-size:40px;font-style:normal;font-weight:normal;line-height:125%;letter-spacing:0px;word-spacing:0px;fill:#000000;fill-opacity:1;stroke:none;font-family:Bitstream Vera Sans"
       x="409.5123"
       y="414.58075"
       id="text3174-7-5"
       sodipodi:linespacing="125%"
       inkscape:export-filename="/home/zim/logo_texto.png"
       inkscape:export-xdpi="90"
       inkscape:export-ydpi="90"><tspan
         sodipodi:role="line"
         x="409.5123"
         y="414.58075"
         style="font-size:16px;font-weight:bold"
         id="tspan3127">Open Network Inventory</tspan></text>
    <path
       transform="matrix(0.41005929,0,0,0.41163969,274.88169,631.6889)"
       sodipodi:type="arc"
       style="fill:#55d400;fill-opacity:1;stroke:#55d400;stroke-opacity:1"
       id="path3755-2-9-0-0"
       sodipodi:cx="402.85715"
       sodipodi:cy="409.50504"
       sodipodi:rx="108.57143"
       sodipodi:ry="108.57143"
       d="m 511.42857,409.50504 a 108.57143,108.57143 0 1 1 -217.14285,0 108.57143,108.57143 0 1 1 217.14285,0 z"
       inkscape:export-filename="/home/zim/logo_texto_al_lado.png"
       inkscape:export-xdpi="165.75603"
       inkscape:export-ydpi="165.75603" />
    <path
       transform="matrix(0.32412677,0,0,0.32537599,313.015,659.95766)"
       sodipodi:type="arc"
       style="fill:url(#linearGradient3781-1-2-0-0);fill-opacity:1;stroke:none"
       id="path3755-4-0-5-6-9"
       sodipodi:cx="402.85715"
       sodipodi:cy="409.50504"
       sodipodi:rx="108.57143"
       sodipodi:ry="108.57143"
       d="m 511.42857,409.50504 a 108.57143,108.57143 0 1 1 -217.14285,0 108.57143,108.57143 0 1 1 217.14285,0 z"
       inkscape:export-filename="/home/zim/logo_texto_al_lado.png"
       inkscape:export-xdpi="165.75603"
       inkscape:export-ydpi="165.75603" />
    <path
       sodipodi:type="arc"
       style="fill:#ffffff;fill-opacity:1;stroke:none"
       id="path3783-6-0-3-6"
       sodipodi:cx="132.85715"
       sodipodi:cy="718.07648"
       sodipodi:rx="21.428572"
       sodipodi:ry="20"
       d="m 154.28572,718.07648 a 21.428572,20 0 1 1 -42.85714,0 21.428572,20 0 1 1 42.85714,0 z"
       transform="matrix(0.41005929,0,0,0.41163969,366.26632,484.67472)"
       inkscape:export-filename="/home/zim/logo_texto_al_lado.png"
       inkscape:export-xdpi="165.75603"
       inkscape:export-ydpi="165.75603" />
    <path
       transform="matrix(0.41005929,0,0,0.41163969,380.0326,533.48343)"
       sodipodi:type="arc"
       style="fill:#ffffff;fill-opacity:1;stroke:none"
       id="path3783-7-1-4-2-3"
       sodipodi:cx="132.85715"
       sodipodi:cy="718.07648"
       sodipodi:rx="21.428572"
       sodipodi:ry="20"
       d="m 154.28572,718.07648 a 21.428572,20 0 1 1 -42.85714,0 21.428572,20 0 1 1 42.85714,0 z"
       inkscape:export-filename="/home/zim/logo_texto_al_lado.png"
       inkscape:export-xdpi="165.75603"
       inkscape:export-ydpi="165.75603" />
    <path
       transform="matrix(0.41005929,0,0,0.41163969,359.8811,512.96024)"
       sodipodi:type="arc"
       style="fill:#ffffff;fill-opacity:1;stroke:none"
       id="path3783-8-5-8-0-8"
       sodipodi:cx="132.85715"
       sodipodi:cy="718.07648"
       sodipodi:rx="21.428572"
       sodipodi:ry="20"
       d="m 154.28572,718.07648 a 21.428572,20 0 1 1 -42.85714,0 21.428572,20 0 1 1 42.85714,0 z"
       inkscape:export-filename="/home/zim/logo_texto_al_lado.png"
       inkscape:export-xdpi="165.75603"
       inkscape:export-ydpi="165.75603" />
    <path
       transform="matrix(0.41005929,0,0,0.41163969,406.39356,525.25062)"
       sodipodi:type="arc"
       style="fill:#ffffff;fill-opacity:1;stroke:none"
       id="path3783-7-4-5-7-6-5"
       sodipodi:cx="132.85715"
       sodipodi:cy="718.07648"
       sodipodi:rx="21.428572"
       sodipodi:ry="20"
       d="m 154.28572,718.07648 a 21.428572,20 0 1 1 -42.85714,0 21.428572,20 0 1 1 42.85714,0 z"
       inkscape:export-filename="/home/zim/logo_texto_al_lado.png"
       inkscape:export-xdpi="165.75603"
       inkscape:export-ydpi="165.75603" />
    <path
       transform="matrix(0.41005929,0,0,0.41163969,410.49415,497.61196)"
       sodipodi:type="arc"
       style="fill:#ffffff;fill-opacity:1;stroke:none"
       id="path3783-7-5-4-1-1-6"
       sodipodi:cx="132.85715"
       sodipodi:cy="718.07648"
       sodipodi:rx="21.428572"
       sodipodi:ry="20"
       d="m 154.28572,718.07648 a 21.428572,20 0 1 1 -42.85714,0 21.428572,20 0 1 1 42.85714,0 z"
       inkscape:export-filename="/home/zim/logo_texto_al_lado.png"
       inkscape:export-xdpi="165.75603"
       inkscape:export-ydpi="165.75603" />
    <path
       transform="matrix(0.41005929,0,0,0.41163969,393.50598,478.20609)"
       sodipodi:type="arc"
       style="fill:#ffffff;fill-opacity:1;stroke:none"
       id="path3783-7-0-7-7-5-1"
       sodipodi:cx="132.85715"
       sodipodi:cy="718.07648"
       sodipodi:rx="21.428572"
       sodipodi:ry="20"
       d="m 154.28572,718.07648 a 21.428572,20 0 1 1 -42.85714,0 21.428572,20 0 1 1 42.85714,0 z"
       inkscape:export-filename="/home/zim/logo_texto_al_lado.png"
       inkscape:export-xdpi="165.75603"
       inkscape:export-ydpi="165.75603" />
    <path
       style="fill:none;stroke:#ffffff;stroke-width:5.38211918;stroke-linecap:butt;stroke-linejoin:miter;stroke-miterlimit:4;stroke-opacity:0.94117647;stroke-dasharray:none"
       d="m 414.00895,808.78428 6.15088,-29.1088 28.11836,-6.46863 17.28108,19.6999 -4.68639,28.52075 -26.06806,7.93876 z"
       id="path3844-6-2-5-1"
       inkscape:connector-curvature="0"
       inkscape:export-xdpi="165.75603"
       inkscape:export-ydpi="165.75603"
       inkscape:export-filename="/home/zim/logo_texto_al_lado.png" />
    <text
       xml:space="preserve"
       style="font-size:40px;font-style:normal;font-weight:normal;line-height:125%;letter-spacing:0px;word-spacing:0px;fill:#000000;fill-opacity:1;stroke:none;font-family:Bitstream Vera Sans"
       x="494.875"
       y="803.33313"
       id="text3174-7-4-5"
       sodipodi:linespacing="125%"
       inkscape:export-filename="/home/zim/logo_texto_al_lado.png"
       inkscape:export-xdpi="165.75603"
       inkscape:export-ydpi="165.75603"><tspan
         sodipodi:role="line"
         x="494.875"
         y="803.33313"
         style="font-size:32px;font-weight:bold;fill:#55d400;fill-opacity:1"
         id="tspan3190-2-6-9">Kuwaiba</tspan></text>
    <text
       xml:space="preserve"
       style="font-size:40px;font-style:normal;font-weight:normal;line-height:125%;letter-spacing:0px;word-spacing:0px;fill:#000000;fill-opacity:1;stroke:none;font-family:Bitstream Vera Sans"
       x="493.16071"
       y="822.76172"
       id="text3174-7-5-8"
       sodipodi:linespacing="125%"
       inkscape:export-filename="/home/zim/logo_texto_al_lado.png"
       inkscape:export-xdpi="165.75603"
       inkscape:export-ydpi="165.75603"><tspan
         sodipodi:role="line"
         x="493.16071"
         y="822.76172"
         style="font-size:16px;font-weight:bold"
         id="tspan3127-4">Open Network Inventory</tspan></text>
  </g>
</svg>
